<svg xmlns="http://www.w3.org/2000/svg" width="32" height="32"><path fill="#7ab55c" d="M20.449 31.972l9.621-2.081s-3.472-23.484-3.5-23.64c-.024-.155-.152-.256-.281-.256s-2.572-.181-2.572-.181-1.7-1.699-1.919-1.881a.528.528 0 0 0-.161-.099l-1.219 28.139h.031zm-4.836-16.899s-1.08-.565-2.365-.565c-1.929 0-2.005 1.208-2.005 1.521 0 1.643 4.32 2.287 4.32 6.172 0 3.06-1.92 5.013-4.541 5.013-3.139 0-4.72-1.953-4.72-1.953l.861-2.781s1.66 1.421 3.04 1.421c.9 0 1.3-.727 1.3-1.243 0-2.159-3.539-2.259-3.539-5.812-.045-2.983 2.095-5.888 6.436-5.888 1.676 0 2.5.481 2.5.481l-1.26 3.62-.027.013zm-.72-13.966c.181 0 .361.051.54.18-1.312.62-2.752 2.185-3.344 5.323-.875.284-1.724.54-2.519.771.692-2.38 2.364-6.26 5.323-6.26v-.013zm1.647 3.932v.18c-1.005.309-2.111.645-3.192.981.621-2.369 1.777-3.527 2.78-3.961.257.668.412 1.568.412 2.8zm.719-2.979c.925.099 1.521 1.156 1.905 2.34-.465.152-.98.308-1.544.488v-.336c0-1.003-.128-1.828-.361-2.495v.003zm3.989 1.719c-.027 0-.08.028-.104.028s-.385.1-.952.28c-.564-1.644-1.568-3.16-3.344-3.16h-.153C16.18.279 15.559 0 15.02 0 10.879 0 8.9 5.169 8.28 7.795c-1.592.487-2.751.848-2.88.899-.9.284-.925.309-1.029 1.16-.1.616-2.44 18.751-2.44 18.751l18.081 3.396L21.248 3.78z"/></svg>