<svg xmlns="http://www.w3.org/2000/svg" width="178.118" height="82.894"><path fill="#0b0b28" d="M27.878 29.182h70.563v11.585H27.878z"/><path d="M113.595 0c-5.135-.009-8.116.12-8.372.377-.358.359 1.159 2.269 4.539 5.716l5.076 5.177 7.511.006c11.02.01 15.796 1.656 21.579 7.439 9.652 9.652 9.227 24.385-1.002 34.71-2.669 2.693-3.838 3.435-7.313 4.638-3.685 1.277-4.9 1.429-11.144 1.396-3.855-.02-7.803-.433-9.217-.535-1.843-.152-4.415-.34-7.286-.671-2.745-.33-5.495-.851-6.68-1.061l-2.158-.383-.14-27.195C98.9 12.446 98.65 2.219 98.312 1.88c-.357-.357-6.207 5.121-17.447 16.34C70.777 28.29 63.63 35.023 63.15 34.91c-.444-.103-8.396-7.648-17.673-16.766C36.2 9.025 28.404 1.565 28.151 1.565c-.397 0-.729 32.637-.53 52.08.076 7.331.036 7.42-4.116 9.028-2.64 1.024-6.857 3.24-10.37 5.45-3.33 2.094-11.105 8.72-12.45 10.609-.606.852-.858 1.548-.559 1.548.3 0 .709-.266.91-.591.589-.953 7.48-5.248 11.985-7.47 7.081-3.492 21.085-7.555 29.767-8.636 5.913-.736 25.616-.74 33.804-.005 7.236.648 15.34 1.695 39.52 5.101 23.192 3.268 27.78 3.682 37.603 3.392 9.685-.287 13.218-1.242 16.906-4.575 3.419-3.088 3.391-6.586-.086-10.977-2.143-2.705-2.806-2.698-1.739.02.773 1.967.766 2.25-.085 3.55-1.308 1.996-3.881 2.898-9.383 3.289-7.754.55-10.284-.396-7.56-2.828 1.233-1.102 5.32-6.44 5.32-6.95 0-.169.836-2.07 1.859-4.226 2.423-5.106 2.965-7.632 2.971-13.843.007-6.508-1.03-10.879-3.89-16.383-4.149-7.984-11.637-14.256-20.838-17.451-3.92-1.362-4.679-1.432-17.762-1.64A426.01 426.01 0 0 0 113.595 0zM39.554 29.655c.082-.01.176.018.283.04.453.097 5.75 5.088 11.77 11.093s11.191 10.918 11.49 10.918c.3 0 5.569-4.996 11.708-11.101 7.323-7.283 11.432-10.998 11.947-10.8.655.251.784 2.291.777 12.314-.005 6.607.016 12.52-.202 12.861-.284.446-4.482.371-14.347.312-14.042-.083-23.143.77-26.663 1.23-2.581.38-6.553 1.046-7.154.638-.27-.183-.46-2.88-.423-5.994.232-19.452.239-21.44.814-21.511zm23.005 39.907c-14.443.08-17.471.667-6.107 1.184 13.572.616 22.98 1.982 52.112 7.566 11.673 2.237 21.194 3.818 25.879 4.298 1.038.107 5.23.232 9.317.28 10.798.125 24.328-2.416 31.123-5.846a5.602 5.602 0 0 0 3.136-6.122c-.14-.63.087 1.363-2.037 3.186-1.867 1.094-2.591 1.438-3.3 1.761-.852.395-1.705.64-2.826.897-2.148.42-4.57.973-14.018 1.112-11.312.166-12.81.269-22.473-1.302-31.174-5.065-51.92-7.12-70.806-7.014z" fill="#0b0b28"/></svg>