<svg aria-hidden="true" style="position:absolute;width:0;height:0" xmlns="http://www.w3.org/2000/svg" overflow="hidden"><defs><symbol id="icon-csswizardry" viewBox="0 0 32 32"><path fill="var(--color1, #f43059)" d="M.04 21.904V1.491A1.49 1.49 0 0 1 1.529 0H30.4c.832 0 1.493.667 1.493 1.493v19.68c-.893-.547-1.947-.821-3.143-.821-1.672 0-2.94.4-3.805 1.195-.867.797-1.293 1.771-1.293 2.967 0 1.293.44 2.253 1.333 2.867.52.38 1.48.72 2.853 1.016l1.4.32c.84.177 1.427.4 1.813.613.373.244.573.583.573 1.02 0 .755-.387 1.273-1.16 1.531l-.04.021h-2.947a2.261 2.261 0 0 1-.92-.6c-.24-.299-.4-.733-.48-1.351h-2.64c0 .755.137 1.393.44 1.973h-2.24c.253-.52.4-1.097.4-1.756 0-1.173-.4-2.067-1.181-2.688-.499-.396-1.253-.713-2.251-.956l-2.293-.536c-.88-.187-1.453-.373-1.733-.533-.413-.24-.613-.6-.613-1.053 0-.507.213-.907.627-1.187.44-.28 1-.413 1.72-.413.653 0 1.173.12 1.613.347.659.341 1 .92 1.053 1.716h2.667c-.04-1.395-.553-2.471-1.533-3.205-.992-.733-2.167-1.113-3.56-1.113-1.673 0-2.927.4-3.804 1.173-.853.777-1.293 1.773-1.293 2.947 0 1.293.44 2.251 1.333 2.867.536.36 1.493.697 2.867 1.013l1.393.32c.813.18 1.413.38 1.813.62.373.24.573.573.573 1.013 0 .76-.4 1.253-1.173 1.533h-2.987c-.379-.141-.693-.341-.92-.62-.24-.293-.413-.752-.493-1.352h-2.689c0 .744.14 1.4.427 1.973H8.813c.44-.693.737-1.493.884-2.387H6.96c-.187.68-.416 1.197-.7 1.533-.347.44-.8.72-1.36.86H3.264c-.6-.14-1.116-.477-1.533-1.013-.619-.744-.917-1.859-.917-3.333 0-1.493.307-2.627.88-3.44.6-.817 1.373-1.213 2.387-1.213 1 0 1.733.28 2.253.859.28.32.52.8.693 1.435H9.8c-.04-.824-.347-1.653-.915-2.48-1.029-1.467-2.659-2.2-4.885-2.2-1.547 0-2.845.48-3.88 1.413l-.067-.147zm31.859 4.848V24.68h-.688c-.047-.796-.4-1.363-1.044-1.699-.417-.219-.956-.331-1.591-.331-.72 0-1.273.147-1.693.429a1.395 1.395 0 0 0-.637 1.203c0 .473.221.827.636 1.06.293.14.867.339 1.747.539l2.293.547c.4.08.747.2 1.067.307l-.067.04z"/></symbol><symbol id="icon-webpack" viewBox="0 0 32 32"><path fill="var(--color2, #8dd6f9)" d="M28.021 24.16l-11.553 6.506v-5.068l7.198-3.942 4.355 2.503zm.79-.712V9.841l-4.228 2.429v8.746l4.228 2.432zm-24.91.712l11.553 6.506v-5.068l-7.198-3.942-4.355 2.503zm-.79-.712V9.841l4.228 2.429v8.746l-4.228 2.432zM3.605 8.96l11.849-6.674v4.9l-7.649 4.19-4.2-2.415zm24.712 0L16.468 2.286v4.9l7.649 4.19 4.2-2.415zM15.454 24.446l-7.102-3.887v-7.703l7.101 4.083v7.508zm1.014 0l7.101-3.887v-7.703l-7.101 4.083v7.508zM8.833 11.965l7.129-3.904 7.129 3.904-7.129 4.099-7.129-4.099z"/></symbol><symbol id="icon-javascript" viewBox="0 0 32 32"><path fill="var(--color3, #f7df1e)" d="M0 0h32v32H0V0zm29.379 24.368c-.233-1.46-1.184-2.687-4.004-3.831-.981-.46-2.072-.78-2.396-1.52-.121-.44-.14-.68-.061-.94.2-.861 1.22-1.12 2.02-.88.52.16 1 .56 1.301 1.2 1.379-.901 1.379-.901 2.34-1.5-.36-.56-.539-.801-.781-1.04-.84-.94-1.959-1.42-3.779-1.379l-.94.119c-.901.22-1.76.7-2.28 1.34-1.52 1.721-1.081 4.721.759 5.961 1.82 1.36 4.481 1.659 4.821 2.94.32 1.56-1.16 2.06-2.621 1.88-1.081-.24-1.68-.781-2.34-1.781l-2.44 1.401c.28.64.6.919 1.08 1.479 2.32 2.341 8.12 2.221 9.161-1.339.039-.12.32-.94.099-2.2l.061.089zm-11.978-9.66h-2.997c0 2.584-.012 5.152-.012 7.74 0 1.643.084 3.151-.184 3.615-.44.919-1.573.801-2.088.64-.528-.261-.796-.621-1.107-1.14-.084-.14-.147-.261-.169-.261l-2.433 1.5c.407.84 1 1.563 1.765 2.023 1.14.68 2.672.9 4.276.54 1.044-.301 1.944-.921 2.415-1.881.68-1.24.536-2.76.529-4.461.016-2.739 0-5.479 0-8.239l.005-.075z"/></symbol><symbol id="icon-bitbucket" viewBox="0 0 32 32"><path fill="var(--color4, #0052cc)" d="M1.037 1.615a1.024 1.024 0 0 0-1.024 1.19L4.364 29.22a1.397 1.397 0 0 0 1.363 1.163H26.6a1.03 1.03 0 0 0 1.027-.861l4.36-26.707a1.024 1.024 0 0 0-1.024-1.188L1.038 1.616zM19.36 20.704h-6.664l-1.803-9.419h10.081l-1.615 9.419z"/></symbol><symbol id="icon-github" viewBox="0 0 32 32"><path d="M16 .396c-8.84 0-16 7.164-16 16 0 7.071 4.584 13.067 10.94 15.18.8.151 1.093-.344 1.093-.769 0-.38-.013-1.387-.02-2.72-4.451.965-5.389-2.147-5.389-2.147-.728-1.847-1.78-2.34-1.78-2.34-1.449-.992.112-.972.112-.972 1.607.112 2.451 1.648 2.451 1.648 1.427 2.447 3.745 1.74 4.66 1.331.144-1.035.556-1.74 1.013-2.14-3.553-.4-7.288-1.776-7.288-7.907 0-1.747.62-3.173 1.647-4.293-.18-.404-.72-2.031.14-4.235 0 0 1.34-.429 4.4 1.64 1.28-.356 2.64-.532 4-.54 1.36.008 2.72.184 4 .54 3.04-2.069 4.38-1.64 4.38-1.64.86 2.204.32 3.831.16 4.235 1.02 1.12 1.64 2.547 1.64 4.293 0 6.147-3.74 7.5-7.3 7.893.56.48 1.08 1.461 1.08 2.96 0 2.141-.02 3.861-.02 4.381 0 .42.28.92 1.1.76C27.42 29.455 32 23.455 32 16.395c0-8.836-7.164-16-16-16z"/></symbol><symbol id="icon-npm" viewBox="0 0 32 32"><path fill="var(--color5, #cb3837)" d="M0 9.779v10.667h8.888v1.776H16v-1.776h16V9.779H0zm8.888 8.885H7.112v-5.333h-1.78v5.333H1.78v-7.108h7.108v7.108zm5.333 0v1.781h-3.553v-8.889h7.112v7.109l-3.559-.001zm16.002 0H28.45v-5.333h-1.781v5.333h-1.78v-5.333h-1.773v5.333h-3.561v-7.108h10.669v7.108z"/><path fill="var(--color5, #cb3837)" d="M14.22 13.333H16v3.556h-1.78v-3.556z"/></symbol><symbol id="icon-shopify" viewBox="0 0 32 32"><path fill="var(--color6, #7ab55c)" d="M20.449 31.972l9.621-2.081s-3.472-23.484-3.5-23.64c-.024-.155-.152-.256-.281-.256s-2.572-.181-2.572-.181-1.7-1.699-1.919-1.881a.528.528 0 0 0-.161-.099l-1.219 28.139h.031zm-4.836-16.899s-1.08-.565-2.365-.565c-1.929 0-2.005 1.208-2.005 1.521 0 1.643 4.32 2.287 4.32 6.172 0 3.06-1.92 5.013-4.541 5.013-3.139 0-4.72-1.953-4.72-1.953l.861-2.781s1.66 1.421 3.04 1.421c.9 0 1.3-.727 1.3-1.243 0-2.159-3.539-2.259-3.539-5.812-.045-2.983 2.095-5.888 6.436-5.888 1.676 0 2.5.481 2.5.481l-1.26 3.62-.027.013zm-.72-13.966c.181 0 .361.051.54.18-1.312.62-2.752 2.185-3.344 5.323-.875.284-1.724.54-2.519.771.692-2.38 2.364-6.26 5.323-6.26v-.013zm1.647 3.932v.18c-1.005.309-2.111.645-3.192.981.621-2.369 1.777-3.527 2.78-3.961.257.668.412 1.568.412 2.8zm.719-2.979c.925.099 1.521 1.156 1.905 2.34-.465.152-.98.308-1.544.488v-.336c0-1.003-.128-1.828-.361-2.495v.003zm3.989 1.719c-.027 0-.08.028-.104.028s-.385.1-.952.28c-.564-1.644-1.568-3.16-3.344-3.16h-.153C16.18.279 15.559 0 15.02 0 10.879 0 8.9 5.169 8.28 7.795c-1.592.487-2.751.848-2.88.899-.9.284-.925.309-1.029 1.16-.1.616-2.44 18.751-2.44 18.751l18.081 3.396L21.248 3.78z"/></symbol><symbol id="icon-git" viewBox="0 0 32 32"><path fill="var(--color7, #f05032)" d="M31.395 14.573L17.423.602a2.065 2.065 0 0 0-2.917 0l-2.895 2.9 3.68 3.68a2.452 2.452 0 0 1 3.103 3.121l3.544 3.547a2.451 2.451 0 0 1 2.533 4.052 2.449 2.449 0 0 1-3.467 0 2.46 2.46 0 0 1-.539-2.661l-3.319-3.301v8.7c.235.115.456.271.651.464a2.463 2.463 0 0 1 0 3.467 2.46 2.46 0 0 1-3.479 0 2.445 2.445 0 0 1 0-3.464c.243-.24.516-.421.807-.541v-8.785a2.433 2.433 0 0 1-.8-.535 2.445 2.445 0 0 1-.528-2.679l-3.616-3.633L.6 14.509c-.8.807-.8 2.112 0 2.919l13.973 13.969a2.061 2.061 0 0 0 2.915 0L31.395 17.49a2.059 2.059 0 0 0 0-2.916z"/></symbol><symbol id="icon-mailchimp" viewBox="0 0 32 32"><path fill="var(--color8, #239ab9)" d="M14.701 2.472l.432.14-.349-1.267-.204.629.12.496zm.708 1.321c.137-.103.3-.223.484-.353h.023l-1.48-.448.96.813.013-.013zm-1.089.954l-.141.123.157-.107-.016-.013zm.516-.427l-2.32-1.92.12.861 1.684 1.485c.067-.053.129-.115.196-.165l.32-.26zm1.796-1.38l-.712-.596.26.9c.14-.1.293-.2.453-.304zM7.256 18.915c.52.003.9.256 1.08.517.16.24.1.381.18.449.02.017.04.027.06.027s.04-.003.04-.009c.1-.04.14-.193.16-.3.02-.257-.12-.547-.3-.751a1.793 1.793 0 0 0-1.34-.571h-.02c-.26 0-.48.045-.56.069-.04.013-.12.029-.18.049-1.02.4-1.48 1.4-1.26 2.4.044.253.155.493.32.691.1.104.2.151.26.151.08 0 .12-.067.06-.18-.02-.057-.16-.297-.18-.733-.016-.443.085-.907.373-1.259.211-.261.471-.376.5-.389l.007.008.115-.06.053-.023c.129-.04.056-.024.189-.048h.04c.117-.027.24-.04.36-.04h.043zm11.36-3.458c.351.008.696.083 1.02.22.221.08.4.16.48.16.04 0 .06-.021.06-.021.04-.032.02-.107-.06-.205-.18-.26-.52-.488-.84-.6a2.067 2.067 0 0 0-.715-.125l.036-.048c-.5 0-1 .18-1.4.5-.301.24-.42.5-.301.52h.023c.099 0 .259-.06.48-.14.48-.18.859-.26 1.2-.26h.02zm4.493-1.028a1.95 1.95 0 0 1 1.031.187c-.02-.88-.533-1.869-.92-1.733-.227.08-.267.48-.259.72.013.297.053.56.149.84v-.013z"/><path fill="var(--color8, #239ab9)" d="M7.929 20.168a.305.305 0 0 1-.12-.173c-.027-.131-.013-.203.1-.283.087-.06.157-.088.157-.124 0-.032-.073-.073-.173-.073l.023-.057a.463.463 0 0 0-.32.141c-.16.179-.22.539.04.84.299.32.76.4.819.8.013.067.019.133.013.2 0 .06-.023.16-.023.18a.877.877 0 0 1-.875.68h-.189c-.064-.02-.111-.02-.151-.02-.027 0-.048 0-.056.021-.045.06.204.36.664.36h.027c.68-.021 1.24-.72 1.107-1.48-.12-.671-.791-.813-1.04-1.011zm11.983-3.6h.021c.069 0 .109-.013.129-.04.053-.089-.301-.376-.819-.376l-.071.027c-.08 0-.16 0-.24.021l-.22.06c-.04 0-.06.02-.08.02-.16.06-.301.14-.42.26-.139.16-.2.3-.139.32h.019c.061 0 .14-.04.28-.093a2.742 2.742 0 0 1 1.341-.211c.077.004.137.013.197.013zm3.885-.832c-.04.26.08.48.259.52.02 0 .04.02.04.02.18 0 .32-.173.36-.407.04-.253-.08-.483-.28-.511-.013-.005-.024-.005-.035-.005l.035-.04c-.18 0-.34.181-.379.421zm-1.37.944a.623.623 0 0 0 .315.085c.143 0 .267-.06.327-.167.107-.187-.021-.447-.273-.587a.66.66 0 0 0-.312-.085l-.009.013c-.139 0-.259.059-.32.16-.099.18.024.46.276.58z"/><path fill="var(--color8, #239ab9)" d="M31.173 20.836h.02a1.684 1.684 0 0 0-1.167-.92c-.177-.804-.42-1.2-.44-1.259.093-.104.18-.211.2-.235.747-.92.259-2.26-1.013-2.581-.716-.68-1.364-1-1.896-1.28-.511-.24-.307-.139-.784-.36-.128-.619-.169-2.059-.373-3.08-.179-.899-.547-1.56-1.111-2-.227-.48-.54-.979-.924-1.339 1.776-2.72 2.24-5.4.94-6.8-.572-.681-1.433-.983-2.461-.983-1.453 0-3.232.591-5.032 1.68l-1.189-.96C10.938-3.221-3.22 14.199 1.778 18.006l1.291.987c-.809 2.251.317 4.939 2.667 5.8.499.192 1.08.283 1.659.251 0 0 3.78 6.953 11.78 6.956 9.24 0 11.6-9.053 11.64-9.133 0 0 .739-1.109.36-2.031zM2.151 16.853h.009c-1.013-1.713.753-5.229 2.009-7.227 3.1-4.941 8.267-8.837 10.613-8.28l.647-.248 1.764 1.491c1.213-.731 2.756-1.471 4.2-1.617-.88.195-1.949.653-3.22 1.427-.027.02-3 2.04-4.813 3.84-.991.98-4.96 5.74-4.96 5.74.728-1.36 1.205-2.04 2.356-3.48a39.1 39.1 0 0 1 2.06-2.34c.34-.34.66-.66 1-.98.124-.104.244-.204.363-.311-.393.272-1.48 1.029-2.083 1.533C9.073 8.898 6.153 12.8 5.053 16.6h.053c-.547.3-1.08.78-1.555 1.431-.02 0-1.22-.888-1.4-1.179zM7.099 24c-1.787 0-3.24-1.524-3.24-3.407 0-1.88 1.453-3.409 3.24-3.409.467 0 .907.1 1.301.287 0 0 .689.349.884 1.989.2-.513.304-.933.304-.933a5.9 5.9 0 0 1 .301 2.2c.193-.259.4-.739.4-.739.352 2.099-1.173 4.013-3.189 4.013zm3.986-12.037l-.053-.085c.131-.173.28-.34.424-.509.589-.88 1.909-2.56 4.083-3.805-.229-.035-.787.04-.885.048.556-.48 1.587-.796 2.3-.94-.205-.133-.704-.168-.949-.173-.075-.02-.075-.02-.16 0 .672-.38 1.917-.6 3.048-.4-.16-.2-.48-.34-.7-.4l-.101-.04.08-.02c.68-.14 1.48 0 2.1.26-.08-.18-.26-.36-.38-.48l-.1-.08c.66.14 1.28.42 1.76.74-.08-.12-.24-.34-.34-.46.62.18 1.32.62 1.64 1.26l.02.06c-1.2-.92-4.68-.66-8.16 1.6a14.158 14.158 0 0 0-3.256 2.831c-.236.351-.368.587-.373.595zm18.687 10.618c-.04.08-.48 2.44-3 4.42-3.16 2.501-7.341 2.243-8.901.84-.84-.8-1.2-1.917-1.2-1.917s-.1.64-.12.88c-.64-1.08-.58-2.4-.58-2.4s-.341.619-.48.979c-.461-1.2-.221-2.42-.221-2.42l-.36.541s-.18-1.36.24-2.48c.46-1.2 1.34-2.06 1.52-2.18-.68-.2-1.44-.819-1.44-.819s.3.021.52-.04c0 0-1.34-.96-1.58-2.44.2.24.619.501.619.501-.139-.38-.22-1.26-.08-2.1.24-1.62 1.58-2.66 3.1-2.66 1.597 0 2.68.34 4.037-.9.28-.26.5-.48.901-.58.04 0 .16-.04.36-.04.219-.008.433.047.62.16.739.44.9 1.58.979 2.4.28 3.1.16 2.54 1.42 3.18.597.3 1.277.58 2.037 1.4v.021c.64 0 .96.52.68.88-2.16 2.58-5.18 3.819-8.539 3.92l-.44.02c-1.36.04-1.8 1.8-.94 2.84.537.66 1.579.88 2.44.88 3.68.08 7.379-2.52 8.019-3.96l.04-.101c-.14.18-3.72 3.54-8.06 3.42 0 0-.48-.02-.92-.12-.581-.14-1.04-.4-1.2-1 .36.08.82.12 1.36.12 3.14 0 5.4-1.44 5.18-1.46h-.04c-.36.08-4.139 1.539-6.52.779.005-.067.016-.139.033-.204.213-.712.591-.613 1.2-.64l-.133.156c2.179-.075 3.939-.62 5.257-1.24 1.4-.673 2.461-1.533 2.861-1.96.499.84.499 1.92.499 1.92s.181-.072.44-.072c.82 0 1 .74.38 1.48z"/></symbol><symbol id="icon-html5" viewBox="0 0 32 32"><path fill="var(--color9, #e34f26)" d="M2 0h28l-2.547 28.751L15.969 32 4.55 28.749 1.999 0zm9.375 13l-.309-3.624 13.412.004.307-3.496L7.217 5.88l.931 10.68h12.168l-.435 4.568-3.88 1.072-3.94-1.08-.251-2.813H8.331l.44 5.561L16 25.801l7.172-1.924.992-10.876H11.375z"/></symbol><symbol id="icon-adobephotoshop" viewBox="0 0 32 32"><path fill="var(--color10, #00c8ff)" d="M0 .4v31.2h32V.4H0zm1.333 1.333h29.333v28.533H1.333V1.733zm6.4 5.974c0-.089.187-.155.299-.155a73.618 73.618 0 0 1 3.437-.067c3.696 0 5.133 2.027 5.133 4.621 0 3.387-2.456 4.84-5.469 4.84-.507 0-.68-.023-1.033-.023v5.123c0 .111-.044.155-.153.155H7.888c-.111 0-.153-.04-.153-.151V7.706zm2.367 7.082c.307.021.549.021 1.08.021 1.56 0 3.027-.549 3.027-2.661 0-1.693-1.048-2.552-2.829-2.552-.528 0-1.033.021-1.276.044v5.152zm11.476-1.584c-1.056 0-1.408.528-1.408.968 0 .484.24.813 1.649 1.54 2.091 1.013 2.749 1.98 2.749 3.409 0 2.133-1.627 3.28-3.827 3.28-1.168 0-2.16-.244-2.733-.573-.087-.044-.107-.109-.107-.22v-1.956c0-.133.064-.177.152-.112a4.91 4.91 0 0 0 2.683.792c1.056 0 1.496-.44 1.496-1.035 0-.484-.307-.903-1.649-1.607-1.893-.907-2.685-1.827-2.685-3.369 0-1.716 1.341-3.147 3.673-3.147 1.147 0 1.952.176 2.392.373.109.067.133.176.133.264v1.827c0 .111-.067.177-.2.133-.592-.352-1.467-.573-2.324-.573z"/></symbol><symbol id="icon-codepen" viewBox="0 0 32 32"><path d="M32 10.909l-.024-.116-.023-.067c-.013-.032-.024-.067-.04-.1-.004-.024-.02-.045-.027-.067l-.047-.089-.04-.067-.059-.08-.061-.06-.08-.06-.061-.04-.08-.059-.059-.053-.02-.027L16.772.252a1.367 1.367 0 0 0-1.523 0L.444 10.135l-.051.053-.067.075-.049.06-.067.08c-.027.023-.04.04-.04.061l-.067.08-.027.08c-.027.013-.027.053-.04.093l-.013.067c-.025.041-.025.081-.025.121v9.996c0 .059.004.12.013.18l.013.061c.007.04.013.08.027.115l.02.067c.013.036.021.071.036.1l.029.067c0 .013.02.053.04.08l.04.053c.02.013.04.053.06.08l.04.053.053.053c.013.017.013.04.04.04l.08.056.053.04.013.019 14.627 9.773c.219.16.5.217.76.217s.52-.08.76-.24l14.877-9.875.069-.077.044-.06.053-.08.04-.067.04-.093.021-.069.04-.103.02-.06.04-.107v-10c0-.067 0-.127-.021-.187l-.019-.06.059.004zm-15.987 8.374l-4.867-3.253 4.867-3.256 4.867 3.253-4.867 3.253zm-1.378-8.899l-5.964 3.987-4.817-3.221 10.781-7.187v6.424zm-8.44 5.644l-3.443 2.307v-4.601l3.443 2.301zm2.476 1.667l5.964 3.987v6.427L3.854 20.921l4.824-3.223v-.005zm8.716 3.986l5.965-3.973 4.817 3.227-10.783 7.187v-6.427zm8.44-5.64l3.444-2.293v4.608l-3.444-2.307zm-2.474-1.653L17.389 10.4V3.96l10.78 7.187-4.816 3.224z"/></symbol><symbol id="icon-linkedin" viewBox="0 0 32 32"><path fill="var(--color11, #0077b5)" d="M27.263 27.269h-4.739v-7.425c0-1.771-.036-4.049-2.469-4.049-2.471 0-2.848 1.927-2.848 3.919v7.556h-4.739V12.001h4.552v2.081h.061c.636-1.2 2.183-2.467 4.493-2.467 4.801 0 5.689 3.16 5.689 7.273v8.381zM7.116 9.911a2.75 2.75 0 0 1-2.751-2.753 2.752 2.752 0 1 1 2.751 2.753zm2.376 17.358H4.74V12h4.752v15.269zM29.633 0H2.361C1.056 0 0 1.032 0 2.305v27.389c0 1.275 1.056 2.305 2.361 2.305h27.268c1.304 0 2.371-1.031 2.371-2.305V2.305C32 1.032 30.933 0 29.629 0h.004z"/></symbol><symbol id="icon-css3" viewBox="0 0 32 32"><path fill="var(--color12, #1572b6)" d="M2 0h28l-2.547 28.751L15.969 32l-11.42-3.251L2 0zm22.787 5.884L7.214 5.88l.284 3.496 13.5.003-.34 3.621h-8.853l.32 3.431h8.243l-.488 4.697L16 22.2l-3.941-1.08-.251-2.813h-3.48l.387 5.14 7.287 2.271 7.164-2.04 1.623-17.792z"/></symbol><symbol id="icon-launchpad" viewBox="0 0 32 32"><path fill="var(--color13, #f8c300)" d="M29.332 24.901l-5.909-3.408-6.377 3.685v6.821L29.333 24.9zM14.955 32v-6.825l-6.38-3.683-5.907 3.409L14.955 32zm1.038-8.633l6.385-3.687v-7.365l-6.38-3.68-6.377 3.68v7.369l6.372 3.683zM1.627 8.909v14.188l5.909-3.412v-7.367L1.627 8.909zm26.153 1.495l-3.312 1.915v7.363l5.907 3.412V8.905l-2.595 1.5zM2.668 7.099l5.913 3.412 6.375-3.683V.004L2.668 7.099zm20.755 3.412l5.912-3.412L17.043 0v6.828l6.38 3.683z"/></symbol><symbol id="icon-visualstudiocode" viewBox="0 0 32 32"><path fill="var(--color14, #007acc)" d="M32 3.333v25.333l-8 3.333-24-7.333v-.748l24 2.06V-.001zM1.333 17.481l4.513-4.148-4.513-4.148 1.891-1.103 4.58 3.451L16 4l4 1.941v14.784l-4 1.941-8.196-7.533-4.579 3.452zm8.859-4.148L16 17.71V8.955z"/></symbol><symbol id="icon-books" viewBox="0 0 36 32"><path d="M7 4H1c-.55 0-1 .45-1 1v22c0 .55.45 1 1 1h6c.55 0 1-.45 1-1V5c0-.55-.45-1-1-1zm-1 6H2V8h4v2zm11-6h-6c-.55 0-1 .45-1 1v22c0 .55.45 1 1 1h6c.55 0 1-.45 1-1V5c0-.55-.45-1-1-1zm-1 6h-4V8h4v2z"/><path d="M23.909 5.546l-5.358 2.7a1.003 1.003 0 0 0-.443 1.343l8.999 17.861c.247.491.852.691 1.343.443l5.358-2.7c.491-.247.691-.852.443-1.343L25.252 5.989a1.003 1.003 0 0 0-1.343-.443z"/></symbol><symbol id="icon-file-text2" viewBox="0 0 32 32"><path d="M28.681 7.159c-.694-.947-1.662-2.053-2.724-3.116s-2.169-2.03-3.116-2.724C21.229.137 20.448 0 20 0H4.5A2.503 2.503 0 0 0 2 2.5v27C2 30.878 3.122 32 4.5 32h23c1.378 0 2.5-1.122 2.5-2.5V10c0-.448-.137-1.23-1.319-2.841zm-4.138-1.702A27.334 27.334 0 0 1 26.811 8H22V3.189a27.334 27.334 0 0 1 2.543 2.268zM28 29.5c0 .271-.229.5-.5.5h-23a.507.507 0 0 1-.5-.5v-27c0-.271.229-.5.5-.5H20v7a1 1 0 0 0 1 1h7v19.5z"/><path d="M23 26H9a1 1 0 0 1 0-2h14a1 1 0 0 1 0 2zm0-4H9a1 1 0 0 1 0-2h14a1 1 0 0 1 0 2zm0-4H9a1 1 0 0 1 0-2h14a1 1 0 0 1 0 2z"/></symbol><symbol id="icon-stack" viewBox="0 0 32 32"><path d="M32 10L16 2 0 10l16 8 16-8zM16 4.655L26.689 10 16 15.345 5.311 10 16 4.655zm12.795 9.743L32 16l-16 8-16-8 3.205-1.602L16 20.796zm0 6L32 22l-16 8-16-8 3.205-1.602L16 26.796z"/></symbol><symbol id="icon-folder" viewBox="0 0 32 32"><path d="M14 4l4 4h14v22H0V4z"/></symbol><symbol id="icon-linkedin2" viewBox="0 0 32 32"><path d="M12 12h5.535v2.837h.079c.77-1.381 2.655-2.837 5.464-2.837C28.92 12 30 15.637 30 20.367V30h-5.769v-8.54c0-2.037-.042-4.657-3.001-4.657-3.005 0-3.463 2.218-3.463 4.509V30H12V12zM2 12h6v18H2V12zm6-5a3 3 0 1 1-6 0 3 3 0 0 1 6 0z"/></symbol><symbol id="icon-sass" viewBox="0 0 32 32"><path fill="var(--color1, #c69)" d="M16 0c8.836 0 16 7.164 16 16s-7.164 16-16 16S0 24.836 0 16 7.164 0 16 0zm-3.18 21.331c.233.86.208 1.664-.032 2.389l-.087.24c-.032.081-.069.16-.104.235a4.492 4.492 0 0 1-.74 1.08c-.931 1.012-2.229 1.396-2.787 1.073-.6-.349-.301-1.78.779-2.92 1.161-1.224 2.827-2.012 2.827-2.012v-.004l.144-.081zM26.035 6.849c-.723-2.844-5.436-3.779-9.896-2.193-2.652.943-5.525 2.424-7.591 4.356-2.457 2.295-2.848 4.295-2.687 5.131.569 2.948 4.609 4.876 6.271 6.307v.008c-.489.24-4.075 2.039-4.915 3.9-.9 1.96.14 3.361.82 3.54 2.1.581 4.26-.48 5.42-2.199 1.12-1.681 1.021-3.841.539-4.901.661-.18 1.44-.26 2.44-.139 2.801.32 3.361 2.08 3.24 2.8-.12.719-.697 1.139-.899 1.259-.2.121-.26.16-.241.241.02.12.121.12.28.1.22-.04 1.461-.6 1.521-1.961.06-1.72-1.581-3.639-4.5-3.6-1.2.021-1.961.121-2.5.341a.479.479 0 0 0-.14-.14c-1.8-1.94-5.14-3.3-5-5.88.04-.94.38-3.419 6.4-6.419 4.94-2.461 8.881-1.78 9.561-.28.977 2.139-2.101 6.12-7.241 6.699-1.96.22-2.98-.539-3.241-.82-.279-.3-.319-.32-.419-.259-.16.08-.06.34 0 .5.16.4.78 1.1 1.861 1.46.939.3 3.24.479 6-.6 3.099-1.199 5.519-4.54 4.819-7.34l.097.089z"/></symbol><symbol id="icon-node-dot-js" viewBox="0 0 32 32"><path fill="var(--color2, #393)" d="M15.247.204L2.754 7.444a1.51 1.51 0 0 0-.751 1.311V23.24c0 .539.287 1.04.752 1.309l12.493 7.247c.467.271 1.04.271 1.507 0l12.488-7.244c.467-.273.752-.771.753-1.309V8.755a1.52 1.52 0 0 0-.755-1.312L16.756.203a1.498 1.498 0 0 0-1.507 0z"/></symbol></defs></svg>